<?xml version="1.0" standalone="no"?>
<!DOCTYPE svg PUBLIC "-//W3C//DTD SVG 20010904//EN"
 "http://www.w3.org/TR/2001/REC-SVG-20010904/DTD/svg10.dtd">
<svg version="1.0" xmlns="http://www.w3.org/2000/svg"
 width="1732.000000pt" height="1730.000000pt" viewBox="0 0 1732.000000 1730.000000"
 preserveAspectRatio="xMidYMid meet">

<g transform="translate(0.000000,1730.000000) scale(0.100000,-0.100000)"
fill="#000000" stroke="none">
<path d="M8530 10763 c-85 -142 -240 -402 -346 -578 -105 -176 -386 -646 -624
-1045 -238 -399 -479 -801 -535 -895 -332 -553 -566 -947 -563 -951 3 -3 2778
-6 3101 -4 16 0 17 30 17 485 l0 485 258 0 c225 0 269 -3 336 -20 93 -23 162
-60 228 -118 l48 -44 -77 129 c-42 70 -108 182 -148 248 -63 104 -428 715
-1132 1895 -107 179 -240 402 -296 497 -56 95 -105 172 -108 173 -3 0 -75
-116 -159 -257z"/>
<path d="M9875 8002 c-3 -3 -5 -108 -5 -234 l0 -228 83 0 c195 0 289 79 289
240 0 102 -41 169 -127 206 -39 17 -227 29 -240 16z"/>
<path d="M5949 6623 c-27 -71 -99 -271 -99 -277 0 -3 18 -6 40 -6 29 0 42 5
50 20 9 17 21 20 70 20 50 0 60 -3 65 -20 5 -16 15 -20 50 -20 l44 0 -36 98
c-19 53 -44 123 -55 155 l-20 57 -49 0 c-45 0 -51 -3 -60 -27z m79 -119 c16
-56 17 -54 -24 -54 -27 0 -35 4 -31 14 3 8 11 33 18 55 14 47 20 44 37 -15z"/>
<path d="M6470 6495 l0 -155 100 0 100 0 0 35 0 35 -60 0 -60 0 0 120 0 120
-40 0 -40 0 0 -155z"/>
<path d="M7000 6496 l0 -156 95 0 c100 0 147 13 159 45 12 32 6 66 -17 89
l-23 23 23 21 c28 25 30 71 4 103 -18 22 -28 24 -130 27 l-111 4 0 -156z m175
59 c0 -17 -8 -20 -47 -23 -46 -3 -48 -2 -48 23 0 25 2 26 48 23 39 -3 47 -6
47 -23z m0 -120 c0 -17 -8 -20 -47 -23 -46 -3 -48 -2 -48 23 0 25 2 26 48 23
39 -3 47 -6 47 -23z"/>
<path d="M7580 6495 l0 -155 40 0 40 0 0 155 0 155 -40 0 -40 0 0 -155z"/>
<path d="M7990 6495 l0 -155 40 0 39 0 3 85 3 84 59 -84 c57 -81 62 -85 98
-85 l38 0 0 155 0 155 -40 0 -39 0 -3 -82 -3 -83 -58 83 c-56 79 -59 82 -97
82 l-40 0 0 -155z"/>
<path d="M8679 6623 c-27 -71 -99 -271 -99 -277 0 -3 18 -6 40 -6 29 0 42 5
50 20 9 17 21 20 70 20 50 0 60 -3 65 -20 5 -16 15 -20 50 -20 l44 0 -36 98
c-19 53 -44 123 -55 155 l-20 57 -49 0 c-45 0 -51 -3 -60 -27z m79 -119 c16
-56 17 -54 -24 -54 -27 0 -35 4 -31 14 3 8 11 33 18 55 14 47 20 44 37 -15z"/>
<path d="M9200 6495 l0 -155 83 0 c110 1 160 22 187 82 39 86 16 168 -60 206
-35 17 -61 22 -127 22 l-83 0 0 -155z m189 59 c49 -62 10 -144 -69 -144 l-40
0 0 85 0 85 44 0 c36 0 48 -5 65 -26z"/>
<path d="M9760 6646 c0 -3 25 -44 55 -92 52 -82 55 -92 55 -151 l0 -63 40 0
40 0 0 65 c0 60 3 70 55 155 l55 90 -44 0 c-43 0 -45 -1 -76 -57 l-32 -56 -21
34 c-11 19 -26 44 -34 57 -10 17 -23 22 -53 22 -22 0 -40 -2 -40 -4z"/>
<path d="M10360 6495 l0 -155 100 0 100 0 0 35 0 35 -60 0 -60 0 0 120 0 120
-40 0 -40 0 0 -155z"/>
<path d="M10955 6638 c-3 -7 -27 -74 -55 -148 -27 -74 -50 -138 -50 -142 0 -5
18 -8 40 -8 29 0 42 5 50 20 9 17 21 20 70 20 50 0 60 -3 65 -20 5 -16 15 -20
50 -20 l45 0 -36 98 c-20 53 -45 123 -56 155 l-20 57 -49 0 c-31 0 -51 -5 -54
-12z m73 -134 c16 -56 17 -54 -24 -54 -27 0 -35 4 -31 14 3 8 11 33 18 55 14
47 20 44 37 -15z"/>
</g>
</svg>
